<svg width="343" height="277" viewBox="0 0 343 277" fill="none" xmlns="http://www.w3.org/2000/svg">
<g clip-path="url(#clip0_0_1)">
<path d="M208.856 87.6535L193 12.655L217.06 7L230.519 86.1702L232.455 110.83L236.603 111.015L252.92 57.617L245.914 22.1109L269.79 17.9392L281.313 72.079L287.766 110.459L292.743 110.088C293.358 106.133 294.034 101.436 294.772 95.997C297.045 79.6809 298.643 67.8146 299.565 60.3982L302.054 39.9103C303.713 25.6337 304.82 14.7254 305.373 7.18541L331 10.9863C331 10.9863 330.17 16.2396 328.511 26.7462C324.885 51.1586 321.013 71.3374 316.896 87.2827L306.571 127.517L273.938 129L263.798 88.3951H261.401L250.8 127.517L217.244 129L208.856 87.6535Z" fill="white"/>
<path d="M21.1423 73.1307L67.4038 65.0458L68.59 102.315V124.795L125.725 114.344C133.765 101.592 137.785 87.0657 137.785 70.7644C137.785 66.4261 137.389 62.3508 136.598 58.5384C104.176 49.4675 58.3096 44.9321 -1 44.9321L6.11715 -2C64.7678 -1.21123 114.983 3.65288 156.764 12.5923C162.958 14.1699 169.812 20.9402 177.324 32.9032C184.441 44.209 188 52.0968 188 56.5665C188 61.0362 187.671 65.7688 187.012 70.7644C186.353 75.6285 185.364 80.887 184.046 86.5399C179.169 107.442 173.897 120.457 168.23 125.584C164.54 129.002 154.128 133.34 136.994 138.599L136.598 140.177L175.94 157.924C177.786 165.812 178.708 173.634 178.708 181.39C178.708 189.015 178.247 195.719 177.324 201.504C176.402 207.288 175.281 212.744 173.963 217.871C169.482 233.909 164.672 243.637 159.531 247.055C151.36 252.445 120.321 257.572 66.4153 262.436C49.6768 263.883 36.4969 264.737 26.8755 265L21.1423 73.1307ZM71.3577 223.392C95.7406 221.289 113.533 218.462 124.736 214.913C128.822 201.504 130.865 191.447 130.865 184.742C130.865 177.906 130.667 172.779 130.272 169.361C130.008 165.812 128.888 163.248 126.911 161.671L70.1715 155.952L71.3577 223.392Z" fill="white"/>
<path d="M316 148L210 163.909V175.045H251.032L316 183V148Z" fill="white"/>
</g>
<defs>
<clipPath id="clip0_0_1">
<rect width="343" height="277" fill="white"/>
</clipPath>
</defs>
</svg>
