<svg width="153" height="128" viewBox="0 0 153 128" fill="none" xmlns="http://www.w3.org/2000/svg">
<path d="M96.6289 43.1533L89.4902 9.57666L100.323 7.04492L106.382 42.4893L107.254 53.5293L109.122 53.6123L116.468 29.7061L113.313 13.8101L124.063 11.9424L129.251 36.1807L132.156 53.3633L134.397 53.1973C134.674 51.4264 134.979 49.3236 135.311 46.8887C136.334 39.584 137.054 34.2715 137.469 30.9512L138.589 21.7788C139.336 15.3872 139.834 10.5036 140.083 7.12793L151.622 8.82959C151.622 8.82959 151.248 11.1815 150.501 15.8853C148.868 26.8146 147.125 35.8486 145.271 42.9873L140.623 61L125.931 61.6641L121.365 43.4854H120.286L115.513 61L100.406 61.6641L96.6289 43.1533Z" fill="white"/>
<path d="M12.4663 36.6309L33.147 33.0073L33.6772 49.7109V59.7861L59.2188 55.1021C62.8128 49.3869 64.6099 42.8763 64.6099 35.5703C64.6099 33.626 64.4331 31.7995 64.0796 30.0908C49.5854 26.0254 29.0815 23.9927 2.56787 23.9927L5.74951 2.9585C31.9686 3.31201 54.4168 5.49202 73.0942 9.49854C75.8634 10.2056 78.9272 13.2399 82.2856 18.6016C85.4673 23.6686 87.0581 27.2038 87.0581 29.207C87.0581 31.2103 86.9108 33.3314 86.6162 35.5703C86.3216 37.7503 85.8797 40.1071 85.2905 42.6406C83.1105 52.0088 80.7537 57.8418 78.2202 60.1396C76.5705 61.6715 71.9159 63.6159 64.2563 65.9727L64.0796 66.6797L81.667 74.6338C82.4919 78.1689 82.9043 81.6746 82.9043 85.1509C82.9043 88.5682 82.6981 91.5731 82.2856 94.1655C81.8732 96.758 81.3724 99.2031 80.7832 101.501C78.7799 108.689 76.6294 113.049 74.3315 114.581C70.6785 116.997 56.8031 119.295 32.7051 121.475C25.2223 122.123 19.3304 122.506 15.0293 122.624L12.4663 36.6309ZM34.9146 103.976C45.8146 103.033 53.7687 101.766 58.7769 100.175C60.6034 94.1655 61.5166 89.6582 61.5166 86.6533C61.5166 83.5895 61.4282 81.2917 61.2515 79.7598C61.1336 78.1689 60.6328 77.02 59.749 76.313L34.3843 73.75L34.9146 103.976Z" fill="white"/>
<path d="M145 70L97 77.2727V82.3636H115.581L145 86V70Z" fill="white"/>
</svg>
